<svg width="48" height="48" fill="none" xmlns="http://www.w3.org/2000/svg"><path d="M33.445 28.12c-.51-.262-3.056-1.51-3.53-1.678-.473-.178-.82-.262-1.162.263-.347.52-1.331 1.678-1.64 2.03-.3.346-.605.388-1.116.13-3.038-1.518-5.03-2.709-7.031-6.145-.53-.914.53-.848 1.518-2.822.17-.346.085-.642-.047-.904-.13-.263-1.162-2.803-1.593-3.84-.418-1.007-.849-.867-1.163-.885-.3-.019-.642-.019-.989-.019s-.905.131-1.378.642c-.473.52-1.81 1.772-1.81 4.313 0 2.54 1.852 5.001 2.105 5.348.263.347 3.643 5.56 8.832 7.805 3.28 1.415 4.565 1.537 6.206 1.294.998-.15 3.056-1.247 3.483-2.461.426-1.21.426-2.246.3-2.461-.127-.23-.474-.361-.985-.61z" fill="#030303"/><path d="M43.369 15.863a21.006 21.006 0 00-4.514-6.718 20.829 20.829 0 00-6.717-4.514A20.9 20.9 0 0024 3h-.094A20.95 20.95 0 009.07 9.206 20.81 20.81 0 004.608 15.9 21.008 21.008 0 003 24.098a21.066 21.066 0 002.25 9.37v7.126c0 1.19.966 2.156 2.156 2.156h7.13a21.066 21.066 0 009.37 2.25h.099c2.808 0 5.531-.544 8.095-1.608a20.836 20.836 0 006.694-4.462 20.801 20.801 0 004.523-6.657A20.949 20.949 0 0045 24.093a20.92 20.92 0 00-1.631-8.23zm-7.083 20.53C33 39.648 28.641 41.438 24 41.438h-.08a17.5 17.5 0 01-8.114-2.039l-.393-.21h-6.6v-6.6l-.211-.394a17.499 17.499 0 01-2.04-8.114c-.018-4.674 1.768-9.061 5.044-12.366 3.272-3.305 7.646-5.133 12.319-5.152h.08c2.344 0 4.617.455 6.76 1.355a17.326 17.326 0 015.577 3.75 17.352 17.352 0 013.75 5.578 17.365 17.365 0 011.355 6.835c-.028 4.668-1.861 9.042-5.161 12.314z" fill="#030303"/></svg>