<svg width="46" height="48" fill="none" xmlns="http://www.w3.org/2000/svg"><path d="M21.797.008C17.945.054 9.663.688 5.031 4.937 1.586 8.351.383 13.398.242 19.64c-.117 6.219-.258 17.898 11 21.078v4.843s-.071 1.938 1.21 2.336c1.578.5 2.476-.991 3.976-2.593l2.798-3.164c7.703.64 13.602-.836 14.282-1.054 1.563-.5 10.366-1.625 11.804-13.305 1.477-12.063-.718-19.664-4.68-23.102h-.023c-1.196-1.101-6-4.602-16.735-4.641 0 0-.796-.054-2.077-.032v.002zm.132 3.391a25.416 25.416 0 011.758.04c9.085.023 13.422 2.758 14.445 3.679 3.336 2.859 5.055 9.711 3.797 19.782-1.196 9.765-8.336 10.383-9.657 10.805-.563.18-5.759 1.46-12.305 1.039 0 0-4.875 5.883-6.399 7.398-.242.265-.524.343-.704.304-.258-.063-.336-.382-.32-.82l.046-8.038c-9.548-2.64-8.985-12.602-8.883-17.806.117-5.203 1.093-9.46 4-12.343 3.914-3.539 10.946-4.016 14.219-4.04h.003zm.72 5.202a.595.595 0 00-.602.594c0 .336.273.602.602.602a11.269 11.269 0 018.063 3.18c2.179 2.117 3.241 4.96 3.281 8.679 0 .329.266.602.602.602v-.024a.6.6 0 00.602-.595 12.921 12.921 0 00-3.626-9.523C29.196 9.796 26.187 8.6 22.649 8.6v.001zm-7.907 1.376a1.878 1.878 0 00-1.227.242h-.031a9.412 9.412 0 00-2.289 1.882c-.547.633-.845 1.273-.922 1.89-.047.367-.015.735.094 1.086l.039.024a27.04 27.04 0 002.406 5.196 30.564 30.564 0 004.641 6.343l.054.078.085.064.055.063.063.053a31.005 31.005 0 006.36 4.664c2.64 1.437 4.241 2.116 5.203 2.399v.014c.282.086.538.125.797.125a3.68 3.68 0 002.203-.945 9.099 9.099 0 001.86-2.297v-.015c.46-.866.304-1.687-.36-2.242a27.699 27.699 0 00-4.298-3.085c-1.023-.555-2.062-.22-2.484.343l-.898 1.132c-.46.563-1.297.485-1.297.485l-.024.015c-6.242-1.595-7.907-7.914-7.907-7.914s-.078-.86.5-1.298l1.125-.905c.538-.438.913-1.476.336-2.501a26.989 26.989 0 00-3.079-4.297 1.71 1.71 0 00-1.008-.602l.003.003zm8.945 1.782c-.797 0-.797 1.203.008 1.203a7.536 7.536 0 015.296 2.296 6.989 6.989 0 011.797 5.141.604.604 0 00.602.594l.023.032a.606.606 0 00.602-.602c.054-2.383-.687-4.383-2.14-5.985-1.462-1.602-3.5-2.5-6.102-2.679h-.086zm.985 3.234c-.82-.024-.852 1.203-.038 1.227 1.976.102 2.936 1.101 3.063 3.156a.597.597 0 00.594.586h.023a.605.605 0 00.578-.64c-.141-2.679-1.602-4.188-4.195-4.327h-.024v-.002z" fill="#030303"/></svg>