<svg width="72" height="138" viewBox="0 0 72 138" fill="none" xmlns="http://www.w3.org/2000/svg">
<path d="M1.20007 132.005L64.1451 68.985L63.7051 68.545L1.17006 5.94499C0.577736 5.32172 0.251617 4.49214 0.260956 3.63235C0.270287 2.77256 0.614342 1.95026 1.22006 1.33999C1.83285 0.745495 2.65637 0.418245 3.51006 0.429993C3.93974 0.424385 4.36629 0.50365 4.76526 0.663241C5.16424 0.822831 5.52778 1.05961 5.83505 1.36L70.8551 66.46C71.1679 66.7821 71.4082 67.1673 71.56 67.5898C71.7118 68.0124 71.7715 68.4625 71.7351 68.91C71.7845 69.3851 71.7296 69.8653 71.5741 70.317C71.4187 70.7687 71.1664 71.181 70.8351 71.525L5.76505 136.68C4.54506 137.83 2.47005 137.845 1.16006 136.58C0.571838 135.961 0.247169 135.138 0.254631 134.284C0.262093 133.431 0.60112 132.613 1.20007 132.005Z" fill="#030303"/>
</svg>
