<svg width="50" height="48" fill="none" xmlns="http://www.w3.org/2000/svg"><path d="M34.024 42C18.674 42 6.186 29.888 6.186 15c.003-2.554.964-5.02 2.704-6.937a10.945 10.945 0 016.753-3.48 3.18 3.18 0 011.918.38 3.04 3.04 0 011.302 1.417l3.884 8.79a2.913 2.913 0 01-.256 2.825l-3.215 4.765c1.451 2.864 3.846 5.177 6.805 6.573l4.841-3.13a3.17 3.17 0 012.934-.261l9.055 3.763a3.07 3.07 0 011.462 1.262 2.93 2.93 0 01.391 1.86 10.42 10.42 0 01-3.587 6.55A11.035 11.035 0 0134.024 42zM16.02 7.562a7.811 7.811 0 00-4.814 2.487A7.374 7.374 0 009.279 15c.008 6.364 2.617 12.464 7.256 16.963 4.639 4.5 10.929 7.03 17.49 7.038a7.88 7.88 0 005.107-1.872 7.442 7.442 0 002.564-4.677L32.638 28.7l-4.84 3.13a3.173 3.173 0 01-3.044.214c-3.596-1.69-6.507-4.5-8.266-7.982a2.922 2.922 0 01.2-2.943l3.215-4.767-3.883-8.789z" fill="#030303"/></svg>