<svg width="72" height="138" viewBox="0 0 72 138" fill="none" xmlns="http://www.w3.org/2000/svg">
<path d="M70.7999 132.005L7.85494 68.985L8.29494 68.545L70.8299 5.94499C71.4223 5.32172 71.7484 4.49214 71.739 3.63235C71.7297 2.77256 71.3857 1.95026 70.7799 1.33999C70.1672 0.745495 69.3436 0.418245 68.4899 0.429993C68.0603 0.424385 67.6337 0.50365 67.2347 0.663241C66.8358 0.822831 66.4722 1.05961 66.1649 1.36L1.14494 66.46C0.832131 66.7821 0.591783 67.1673 0.44001 67.5898C0.288238 68.0124 0.228546 68.4625 0.264939 68.91C0.215486 69.3851 0.270407 69.8653 0.425862 70.317C0.581318 70.7687 0.833556 71.181 1.16494 71.525L66.2349 136.68C67.4549 137.83 69.5299 137.845 70.8399 136.58C71.4282 135.961 71.7528 135.138 71.7454 134.284C71.7379 133.431 71.3989 132.613 70.7999 132.005Z" fill="#030303"/>
</svg>
