<svg width="48" height="48" viewBox="0 0 48 48" fill="none" xmlns="http://www.w3.org/2000/svg">
<path d="M24 45C19.8466 45 15.7865 43.7684 12.333 41.4609C8.8796 39.1534 6.18798 35.8736 4.59854 32.0364C3.0091 28.1991 2.59323 23.9767 3.40352 19.9031C4.21381 15.8295 6.21386 12.0877 9.15077 9.15077C12.0877 6.21386 15.8295 4.21381 19.9031 3.40352C23.9767 2.59323 28.1991 3.0091 32.0364 4.59854C35.8736 6.18798 39.1534 8.8796 41.4609 12.333C43.7684 15.7865 45 19.8466 45 24C45 29.5696 42.7875 34.911 38.8493 38.8493C34.911 42.7875 29.5696 45 24 45ZM24 6.00001C20.4399 6.00001 16.9598 7.05569 13.9997 9.03356C11.0397 11.0114 8.73256 13.8226 7.37018 17.1117C6.0078 20.4008 5.65134 24.02 6.34587 27.5116C7.04041 31.0033 8.75474 34.2106 11.2721 36.7279C13.7894 39.2453 16.9967 40.9596 20.4884 41.6541C23.98 42.3487 27.5992 41.9922 30.8883 40.6298C34.1774 39.2675 36.9886 36.9604 38.9665 34.0003C40.9443 31.0402 42 27.5601 42 24C42 19.2261 40.1036 14.6477 36.7279 11.2721C33.3523 7.89643 28.7739 6.00001 24 6.00001Z" fill="#030303"/>
<path d="M30.885 33L22.5 24.615V10.5H25.5V23.37L33 30.885L30.885 33Z" fill="#030303"/>
</svg>
